<svg width="194" height="40" viewBox="0 0 194 40" fill="none" xmlns="http://www.w3.org/2000/svg">
<rect x="0.5" y="0.5" width="193" height="39" rx="5.5" stroke="#616E80"/>
<path d="M52.4444 27.1111C51.8667 27.1111 51.3185 26.9556 50.8 26.6444C50.2815 26.3333 49.8667 25.9185 49.5556 25.4C49.2593 24.8667 49.1111 24.2889 49.1111 23.6667C49.1111 23.0148 49.2593 22.4222 49.5556 21.8889C49.8667 21.3407 50.2741 20.9111 50.7778 20.6C51.2963 20.2741 51.8519 20.1111 52.4444 20.1111C53.2593 20.1111 53.8889 20.3333 54.3333 20.7778V20.3333H56.1111V25.2222H58.2222C58.3704 24.6296 58.4444 24 58.4444 23.3333C58.4444 21.5704 57.9704 20.2074 57.0222 19.2444C56.0889 18.2667 54.7852 17.7778 53.1111 17.7778C51.9704 17.7778 50.963 18.0222 50.0889 18.5111C49.2148 19 48.5333 19.6889 48.0444 20.5778C47.5704 21.4667 47.3333 22.4963 47.3333 23.6667C47.3333 24.837 47.563 25.8519 48.0222 26.7111C48.4815 27.5556 49.1259 28.2 49.9556 28.6444C50.8 29.1037 51.7778 29.3333 52.8889 29.3333C53.6889 29.3333 54.3926 29.237 55 29.0444C55.6222 28.8519 56.1778 28.5407 56.6667 28.1111L58 29.4444C56.5185 30.7037 54.8148 31.3333 52.8889 31.3333C51.4667 31.3333 50.1556 30.9926 48.9556 30.3111C47.7704 29.6444 46.8296 28.7259 46.1333 27.5556C45.4519 26.3852 45.1111 25.0889 45.1111 23.6667C45.1111 22.2 45.4593 20.8667 46.1556 19.6667C46.8519 18.4667 47.8 17.5185 49 16.8222C50.2 16.1259 51.5333 15.7778 53 15.7778C54.4222 15.7778 55.7111 16.1111 56.8667 16.7778C58.0222 17.4296 58.9259 18.3407 59.5778 19.5111C60.2296 20.6667 60.5556 21.9778 60.5556 23.4444C60.5556 24.7926 60.2593 25.9407 59.6667 26.8889H54.3333V26.4444C53.8889 26.8889 53.2593 27.1111 52.4444 27.1111ZM52.5556 25.3333C53.0444 25.3333 53.4222 25.1704 53.6889 24.8444C53.9704 24.5037 54.1111 24.0741 54.1111 23.5556C54.1111 23.0519 53.9704 22.6519 53.6889 22.3556C53.4222 22.0444 53.0444 21.8889 52.5556 21.8889C52.1111 21.8889 51.7407 22.0444 51.4444 22.3556C51.1481 22.6667 51 23.0667 51 23.5556C51 24.0741 51.1333 24.5037 51.4 24.8444C51.6815 25.1704 52.0667 25.3333 52.5556 25.3333ZM65.3364 12.2222V19.1111C65.7364 18.6667 66.2253 18.3185 66.803 18.0667C67.3808 17.8 68.003 17.6667 68.6697 17.6667C69.5141 17.6667 70.2623 17.8519 70.9141 18.2222C71.5808 18.5778 72.0919 19.0889 72.4475 19.7556C72.8179 20.4074 73.003 21.1556 73.003 22V29.1111H70.3364V22.5556C70.3364 21.8296 70.1067 21.2222 69.6475 20.7333C69.1882 20.2444 68.603 20 67.8919 20C67.166 20 66.5586 20.2444 66.0697 20.7333C65.5808 21.2222 65.3364 21.8296 65.3364 22.5556V29.1111H62.6697V12.2222H65.3364ZM79.6606 29.3333C78.6384 29.3333 77.7198 29.0741 76.905 28.5556C76.105 28.037 75.4754 27.3333 75.0161 26.4444C74.5569 25.5407 74.3273 24.5407 74.3273 23.4444C74.3273 22.3481 74.5569 21.363 75.0161 20.4889C75.4902 19.6 76.1347 18.9111 76.9495 18.4222C77.7643 17.9185 78.668 17.6667 79.6606 17.6667C80.431 17.6667 81.1198 17.8 81.7273 18.0667C82.3347 18.3333 82.831 18.7185 83.2161 19.2222V17.8889H85.7717V29.1111H83.2161V27.7778C82.831 28.2667 82.3198 28.6444 81.6828 28.9111C81.0606 29.1926 80.3865 29.3333 79.6606 29.3333ZM80.2161 26.7778C81.1198 26.7778 81.8606 26.4741 82.4384 25.8667C83.031 25.2444 83.3273 24.437 83.3273 23.4444C83.3273 22.4519 83.031 21.6519 82.4384 21.0444C81.8606 20.4222 81.1198 20.1111 80.2161 20.1111C79.268 20.1111 78.4902 20.4222 77.8828 21.0444C77.2902 21.6519 76.9939 22.4519 76.9939 23.4444C76.9939 24.437 77.2902 25.2444 77.8828 25.8667C78.4902 26.4741 79.268 26.7778 80.2161 26.7778ZM90.7661 17.8889V19C91.092 18.5704 91.5142 18.2444 92.0327 18.0222C92.5661 17.7852 93.1438 17.6667 93.7661 17.6667C94.9068 17.6667 95.7957 18.037 96.4327 18.7778L94.7661 20.6667C94.529 20.4296 94.2846 20.2593 94.0327 20.1556C93.7809 20.0519 93.4698 20 93.0994 20C92.4179 20 91.8549 20.2444 91.4105 20.7333C90.9809 21.2222 90.7661 21.9037 90.7661 22.7778V29.1111H88.0994V17.8889H90.7661ZM102.102 29.3333C101.154 29.3333 100.309 29.1185 99.5687 28.6889C98.8279 28.2593 98.2501 27.6667 97.8353 26.9111C97.4205 26.1407 97.2131 25.2815 97.2131 24.3333V17.8889H99.8798V24.3333C99.8798 25.1185 100.072 25.7259 100.458 26.1556C100.843 26.5704 101.391 26.7778 102.102 26.7778C102.828 26.7778 103.398 26.563 103.813 26.1333C104.228 25.7037 104.435 25.1037 104.435 24.3333V17.8889H107.102V24.3333C107.102 25.2963 106.895 26.1556 106.48 26.9111C106.065 27.6667 105.472 28.2593 104.702 28.6889C103.946 29.1185 103.08 29.3333 102.102 29.3333ZM111.664 17.8889V19.1111C112.064 18.6519 112.561 18.2963 113.153 18.0444C113.746 17.7926 114.398 17.6667 115.109 17.6667C115.894 17.6667 116.605 17.8741 117.242 18.2889C117.894 18.6889 118.405 19.2222 118.776 19.8889C119.146 20.5556 119.331 21.2593 119.331 22V29.1111H116.664V22.5556C116.664 21.8296 116.435 21.2222 115.976 20.7333C115.516 20.2444 114.931 20 114.22 20C113.494 20 112.887 20.2444 112.398 20.7333C111.909 21.2222 111.664 21.8296 111.664 22.5556V29.1111H108.998V17.8889H111.664ZM125.989 29.3333C124.966 29.3333 124.048 29.0741 123.233 28.5556C122.433 28.037 121.804 27.3333 121.344 26.4444C120.885 25.5407 120.655 24.5407 120.655 23.4444C120.655 22.3481 120.885 21.363 121.344 20.4889C121.818 19.6 122.463 18.9111 123.278 18.4222C124.092 17.9185 124.996 17.6667 125.989 17.6667C126.759 17.6667 127.448 17.8 128.055 18.0667C128.663 18.3333 129.159 18.7185 129.544 19.2222V17.8889H132.1V29.1111H129.544V27.7778C129.159 28.2667 128.648 28.6444 128.011 28.9111C127.389 29.1926 126.715 29.3333 125.989 29.3333ZM126.544 26.7778C127.448 26.7778 128.189 26.4741 128.766 25.8667C129.359 25.2444 129.655 24.437 129.655 23.4444C129.655 22.4519 129.359 21.6519 128.766 21.0444C128.189 20.4222 127.448 20.1111 126.544 20.1111C125.596 20.1111 124.818 20.4222 124.211 21.0444C123.618 21.6519 123.322 22.4519 123.322 23.4444C123.322 24.437 123.618 25.2444 124.211 25.8667C124.818 26.4741 125.596 26.7778 126.544 26.7778ZM139.316 29.3333C137.065 29.3333 135.324 28.5556 134.094 27L135.872 25.1111C136.198 25.6593 136.657 26.0741 137.25 26.3556C137.842 26.637 138.531 26.7778 139.316 26.7778C140.279 26.7778 141.072 26.4963 141.694 25.9333C142.331 25.3556 142.65 24.6 142.65 23.6667C142.65 22.7481 142.339 22 141.716 21.4222C141.094 20.8444 140.331 20.5556 139.428 20.5556C138.287 20.5556 137.287 20.9259 136.428 21.6667L135.094 20.3333L135.761 12.6667H144.65V15.1111H137.983L137.65 19C137.931 18.8222 138.287 18.6889 138.716 18.6C139.146 18.4963 139.605 18.4444 140.094 18.4444C141.205 18.4444 142.161 18.6889 142.961 19.1778C143.776 19.6519 144.39 20.2963 144.805 21.1111C145.22 21.9111 145.428 22.8 145.428 23.7778C145.428 24.8444 145.161 25.8 144.628 26.6444C144.109 27.4889 143.383 28.1481 142.45 28.6222C141.531 29.0963 140.487 29.3333 139.316 29.3333ZM147.644 15.1111L147.422 12.6667H157.644C157.926 12.6667 158.14 12.7481 158.289 12.9111C158.452 13.0593 158.533 13.2741 158.533 13.5556V14.3333L152.755 29.1111H149.866L155.533 15.1111H147.644ZM162.638 15.1111L162.416 12.6667H167.638C167.92 12.6667 168.135 12.7481 168.283 12.9111C168.446 13.0593 168.527 13.2741 168.527 13.5556V29.1111H165.75V15.1111H162.638ZM179.188 29.3333C178.092 29.3333 177.114 29.1259 176.255 28.7111C175.396 28.3111 174.737 27.7481 174.277 27.0222C173.818 26.2963 173.603 25.4741 173.633 24.5556C173.574 23.5778 173.788 22.7185 174.277 21.9778C174.766 21.2222 175.44 20.6741 176.299 20.3333C175.662 19.9926 175.151 19.5111 174.766 18.8889C174.396 18.2519 174.24 17.5852 174.299 16.8889C174.27 16.0444 174.462 15.2889 174.877 14.6222C175.292 13.9407 175.877 13.4074 176.633 13.0222C177.388 12.637 178.24 12.4444 179.188 12.4444C180.137 12.4444 180.981 12.637 181.722 13.0222C182.462 13.4074 183.04 13.9407 183.455 14.6222C183.87 15.2889 184.077 16.0444 184.077 16.8889C184.077 17.6296 183.907 18.3111 183.566 18.9333C183.225 19.5407 182.729 20.0074 182.077 20.3333C182.907 20.6741 183.574 21.2296 184.077 22C184.596 22.7556 184.855 23.6074 184.855 24.5556C184.855 25.4444 184.611 26.2519 184.122 26.9778C183.648 27.7037 182.974 28.2741 182.099 28.6889C181.24 29.1185 180.27 29.3333 179.188 29.3333ZM179.188 19.3333C179.87 19.3333 180.425 19.1259 180.855 18.7111C181.299 18.2963 181.522 17.763 181.522 17.1111C181.522 16.4444 181.299 15.8889 180.855 15.4444C180.411 15 179.855 14.7778 179.188 14.7778C178.522 14.7778 177.966 15 177.522 15.4444C177.077 15.8889 176.855 16.4444 176.855 17.1111C176.855 17.763 177.07 18.2963 177.499 18.7111C177.944 19.1259 178.507 19.3333 179.188 19.3333ZM179.188 26.7778C180.062 26.7778 180.759 26.5333 181.277 26.0444C181.811 25.5407 182.077 24.8963 182.077 24.1111C182.077 23.3259 181.811 22.6889 181.277 22.2C180.759 21.6963 180.062 21.4444 179.188 21.4444C178.359 21.4444 177.67 21.6963 177.122 22.2C176.574 22.7037 176.299 23.3407 176.299 24.1111C176.299 24.8815 176.574 25.5185 177.122 26.0222C177.67 26.5259 178.359 26.7778 179.188 26.7778Z" fill="white"/>
<g clip-path="url(#clip0_417_55)">
<path d="M28.317 12.37C26.761 11.6557 25.119 11.1464 23.4319 10.8548C23.4166 10.8519 23.4007 10.854 23.3867 10.8606C23.3726 10.8673 23.3609 10.8782 23.3534 10.8919C23.1424 11.2672 22.9087 11.7567 22.7451 12.1414C20.9004 11.8652 19.0651 11.8652 17.2583 12.1414C17.0947 11.7481 16.8525 11.2672 16.6406 10.8919C16.6328 10.8785 16.6211 10.8679 16.6071 10.8613C16.5931 10.8547 16.5774 10.8524 16.5621 10.8549C14.8749 11.1458 13.2327 11.6551 11.6769 12.3699C11.6636 12.3756 11.6524 12.3852 11.6448 12.3976C8.5334 17.046 7.681 21.5801 8.0992 26.058C8.10039 26.0689 8.10376 26.0796 8.10912 26.0892C8.11448 26.0988 8.12171 26.1073 8.1304 26.1141C10.1832 27.6217 12.1717 28.5369 14.1233 29.1435C14.1385 29.148 14.1547 29.1478 14.1697 29.1429C14.1848 29.1379 14.198 29.1285 14.2075 29.1159C14.6691 28.4855 15.0806 27.8207 15.4335 27.1217C15.4384 27.1121 15.4411 27.1016 15.4416 27.0909C15.4421 27.0802 15.4404 27.0695 15.4364 27.0595C15.4325 27.0495 15.4265 27.0405 15.4188 27.033C15.4112 27.0255 15.402 27.0197 15.3919 27.016C14.7391 26.7684 14.1176 26.4665 13.5197 26.1237C13.5088 26.1173 13.4996 26.1083 13.493 26.0975C13.4864 26.0867 13.4826 26.0745 13.4818 26.0619C13.4811 26.0492 13.4835 26.0366 13.4887 26.0251C13.494 26.0136 13.502 26.0036 13.5121 25.996C13.6379 25.9017 13.7638 25.8037 13.8839 25.7046C13.8946 25.6958 13.9075 25.6901 13.9212 25.6883C13.9349 25.6864 13.9489 25.6884 13.9615 25.6941C17.8893 27.4874 22.1415 27.4874 26.0229 25.6941C26.0355 25.6881 26.0496 25.6858 26.0635 25.6874C26.0774 25.6891 26.0906 25.6947 26.1014 25.7036C26.2216 25.8026 26.3474 25.9017 26.4742 25.996C26.4843 26.0035 26.4924 26.0135 26.4977 26.0249C26.5031 26.0364 26.5055 26.0489 26.5049 26.0615C26.5042 26.0741 26.5005 26.0864 26.494 26.0972C26.4875 26.108 26.4784 26.1171 26.4676 26.1236C25.8695 26.4729 25.2429 26.7711 24.5946 27.015C24.5845 27.0188 24.5754 27.0248 24.5678 27.0324C24.5602 27.04 24.5542 27.0492 24.5504 27.0592C24.5466 27.0693 24.5449 27.0801 24.5455 27.0908C24.5461 27.1016 24.549 27.1121 24.5539 27.1217C24.9143 27.8197 25.3258 28.4845 25.7789 29.1149C25.7882 29.1279 25.8013 29.1376 25.8164 29.1428C25.8315 29.1479 25.8478 29.1482 25.8631 29.1435C27.8241 28.5368 29.8126 27.6216 31.8654 26.1141C31.8742 26.1076 31.8816 26.0994 31.887 26.0898C31.8924 26.0803 31.8957 26.0698 31.8967 26.0589C32.3971 20.8819 31.0585 16.385 28.3482 12.3985C28.3416 12.3855 28.3305 12.3755 28.317 12.37ZM16.02 23.3314C14.8375 23.3314 13.8631 22.2457 13.8631 20.9124C13.8631 19.5792 14.8186 18.4935 16.0201 18.4935C17.2309 18.4935 18.1958 19.5887 18.1769 20.9125C18.1769 22.2457 17.2214 23.3314 16.02 23.3314ZM23.9948 23.3314C22.8123 23.3314 21.8379 22.2457 21.8379 20.9124C21.8379 19.5792 22.7933 18.4935 23.9948 18.4935C25.2056 18.4935 26.1705 19.5887 26.1516 20.9125C26.1516 22.2457 25.2056 23.3314 23.9948 23.3314Z" fill="white"/>
</g>
<line x1="38.5" y1="8" x2="38.5" y2="32" stroke="#616E80" stroke-opacity="0.5"/>
<defs>
<clipPath id="clip0_417_55">
<rect width="24" height="24" fill="white" transform="translate(8 8)"/>
</clipPath>
</defs>
</svg>
