<svg width="268" height="40" viewBox="0 0 268 40" fill="none" xmlns="http://www.w3.org/2000/svg">
<rect x="0.5" y="0.5" width="267" height="39" rx="5.5" stroke="#616E80"/>
<path d="M47.7778 17.8889V19C48.163 18.5704 48.6444 18.2444 49.2222 18.0222C49.8 17.7852 50.4296 17.6667 51.1111 17.6667C51.8519 17.6667 52.5111 17.8148 53.0889 18.1111C53.6815 18.4074 54.1704 18.8519 54.5556 19.4444C54.9407 18.8519 55.4444 18.4074 56.0667 18.1111C56.7037 17.8148 57.4222 17.6667 58.2222 17.6667C59.037 17.6667 59.7852 17.8444 60.4667 18.2C61.1481 18.5556 61.6815 19.0667 62.0667 19.7333C62.4667 20.3852 62.6667 21.1407 62.6667 22V29.1111H59.8889V22.3333C59.8889 21.6222 59.6667 21.0593 59.2222 20.6444C58.7926 20.2148 58.237 20 57.5556 20C56.8741 20 56.3111 20.2148 55.8667 20.6444C55.437 21.0593 55.2222 21.6222 55.2222 22.3333V29.1111H52.5556V22.3333C52.5556 21.6222 52.3333 21.0593 51.8889 20.6444C51.4593 20.2148 50.9037 20 50.2222 20C49.5407 20 48.963 20.2148 48.4889 20.6444C48.0148 21.0741 47.7778 21.637 47.7778 22.3333V29.1111H45.1111V17.8889H47.7778ZM69.8976 29.3333C68.742 29.3333 67.705 29.0741 66.7865 28.5556C65.8679 28.0519 65.1568 27.3556 64.6531 26.4667C64.1494 25.563 63.8976 24.5556 63.8976 23.4444C63.8976 22.3481 64.142 21.363 64.6309 20.4889C65.1346 19.6 65.8235 18.9111 66.6976 18.4222C67.5865 17.9185 68.5791 17.6667 69.6753 17.6667C70.6976 17.6667 71.6235 17.9037 72.4531 18.3778C73.2828 18.8519 73.9346 19.5037 74.4087 20.3333C74.8828 21.163 75.1198 22.0889 75.1198 23.1111C75.1198 23.1852 75.1124 23.2741 75.0976 23.3778C75.0976 23.4667 75.105 23.563 75.1198 23.6667C75.0457 23.8296 75.0087 24.0519 75.0087 24.3333H66.4531C66.6161 25.163 67.0087 25.8148 67.6309 26.2889C68.2531 26.763 69.0087 27 69.8976 27C71.1124 27 72.0753 26.5926 72.7865 25.7778L74.4531 27.3333C73.8902 27.9556 73.2087 28.4444 72.4087 28.8C71.6087 29.1556 70.7716 29.3333 69.8976 29.3333ZM69.6753 19.8889C68.8309 19.8889 68.1198 20.1037 67.542 20.5333C66.9791 20.963 66.6161 21.563 66.4531 22.3333H72.5642C72.2383 20.7037 71.2753 19.8889 69.6753 19.8889ZM83.8898 27.1111C83.312 27.1111 82.7638 26.9556 82.2453 26.6444C81.7268 26.3333 81.312 25.9185 81.0009 25.4C80.7046 24.8667 80.5564 24.2889 80.5564 23.6667C80.5564 23.0148 80.7046 22.4222 81.0009 21.8889C81.312 21.3407 81.7194 20.9111 82.2231 20.6C82.7416 20.2741 83.2972 20.1111 83.8898 20.1111C84.7046 20.1111 85.3342 20.3333 85.7786 20.7778V20.3333H87.5564V25.2222H89.6675C89.8157 24.6296 89.8898 24 89.8898 23.3333C89.8898 21.5704 89.4157 20.2074 88.4675 19.2444C87.5342 18.2667 86.2305 17.7778 84.5564 17.7778C83.4157 17.7778 82.4083 18.0222 81.5342 18.5111C80.6601 19 79.9786 19.6889 79.4898 20.5778C79.0157 21.4667 78.7786 22.4963 78.7786 23.6667C78.7786 24.837 79.0083 25.8519 79.4675 26.7111C79.9268 27.5556 80.5712 28.2 81.4009 28.6444C82.2453 29.1037 83.2231 29.3333 84.3342 29.3333C85.1342 29.3333 85.8379 29.237 86.4453 29.0444C87.0675 28.8519 87.6231 28.5407 88.112 28.1111L89.4453 29.4444C87.9638 30.7037 86.2601 31.3333 84.3342 31.3333C82.912 31.3333 81.6009 30.9926 80.4009 30.3111C79.2157 29.6444 78.2749 28.7259 77.5786 27.5556C76.8972 26.3852 76.5564 25.0889 76.5564 23.6667C76.5564 22.2 76.9046 20.8667 77.6009 19.6667C78.2972 18.4667 79.2453 17.5185 80.4453 16.8222C81.6453 16.1259 82.9786 15.7778 84.4453 15.7778C85.8675 15.7778 87.1564 16.1111 88.312 16.7778C89.4675 17.4296 90.3712 18.3407 91.0231 19.5111C91.6749 20.6667 92.0009 21.9778 92.0009 23.4444C92.0009 24.7926 91.7046 25.9407 91.112 26.8889H85.7786V26.4444C85.3342 26.8889 84.7046 27.1111 83.8898 27.1111ZM84.0009 25.3333C84.4898 25.3333 84.8675 25.1704 85.1342 24.8444C85.4157 24.5037 85.5564 24.0741 85.5564 23.5556C85.5564 23.0519 85.4157 22.6519 85.1342 22.3556C84.8675 22.0444 84.4898 21.8889 84.0009 21.8889C83.5564 21.8889 83.1861 22.0444 82.8898 22.3556C82.5935 22.6667 82.4453 23.0667 82.4453 23.5556C82.4453 24.0741 82.5786 24.5037 82.8453 24.8444C83.1268 25.1704 83.512 25.3333 84.0009 25.3333ZM96.7817 12.2222V19.1111C97.1817 18.6667 97.6706 18.3185 98.2484 18.0667C98.8261 17.8 99.4484 17.6667 100.115 17.6667C100.959 17.6667 101.708 17.8519 102.359 18.2222C103.026 18.5778 103.537 19.0889 103.893 19.7556C104.263 20.4074 104.448 21.1556 104.448 22V29.1111H101.782V22.5556C101.782 21.8296 101.552 21.2222 101.093 20.7333C100.634 20.2444 100.048 20 99.3372 20C98.6113 20 98.0039 20.2444 97.515 20.7333C97.0261 21.2222 96.7817 21.8296 96.7817 22.5556V29.1111H94.115V12.2222H96.7817ZM111.106 29.3333C110.084 29.3333 109.165 29.0741 108.35 28.5556C107.55 28.037 106.921 27.3333 106.461 26.4444C106.002 25.5407 105.773 24.5407 105.773 23.4444C105.773 22.3481 106.002 21.363 106.461 20.4889C106.936 19.6 107.58 18.9111 108.395 18.4222C109.21 17.9185 110.113 17.6667 111.106 17.6667C111.876 17.6667 112.565 17.8 113.173 18.0667C113.78 18.3333 114.276 18.7185 114.661 19.2222V17.8889H117.217V29.1111H114.661V27.7778C114.276 28.2667 113.765 28.6444 113.128 28.9111C112.506 29.1926 111.832 29.3333 111.106 29.3333ZM111.661 26.7778C112.565 26.7778 113.306 26.4741 113.884 25.8667C114.476 25.2444 114.773 24.437 114.773 23.4444C114.773 22.4519 114.476 21.6519 113.884 21.0444C113.306 20.4222 112.565 20.1111 111.661 20.1111C110.713 20.1111 109.936 20.4222 109.328 21.0444C108.736 21.6519 108.439 22.4519 108.439 23.4444C108.439 24.437 108.736 25.2444 109.328 25.8667C109.936 26.4741 110.713 26.7778 111.661 26.7778ZM122.211 17.8889V19C122.537 18.5704 122.96 18.2444 123.478 18.0222C124.011 17.7852 124.589 17.6667 125.211 17.6667C126.352 17.6667 127.241 18.037 127.878 18.7778L126.211 20.6667C125.974 20.4296 125.73 20.2593 125.478 20.1556C125.226 20.0519 124.915 20 124.545 20C123.863 20 123.3 20.2444 122.856 20.7333C122.426 21.2222 122.211 21.9037 122.211 22.7778V29.1111H119.545V17.8889H122.211ZM133.547 29.3333C132.599 29.3333 131.755 29.1185 131.014 28.6889C130.273 28.2593 129.695 27.6667 129.281 26.9111C128.866 26.1407 128.658 25.2815 128.658 24.3333V17.8889H131.325V24.3333C131.325 25.1185 131.518 25.7259 131.903 26.1556C132.288 26.5704 132.836 26.7778 133.547 26.7778C134.273 26.7778 134.844 26.563 135.258 26.1333C135.673 25.7037 135.881 25.1037 135.881 24.3333V17.8889H138.547V24.3333C138.547 25.2963 138.34 26.1556 137.925 26.9111C137.51 27.6667 136.918 28.2593 136.147 28.6889C135.392 29.1185 134.525 29.3333 133.547 29.3333ZM143.11 17.8889V19.1111C143.51 18.6519 144.006 18.2963 144.599 18.0444C145.191 17.7926 145.843 17.6667 146.554 17.6667C147.339 17.6667 148.051 17.8741 148.688 18.2889C149.339 18.6889 149.851 19.2222 150.221 19.8889C150.591 20.5556 150.776 21.2593 150.776 22V29.1111H148.11V22.5556C148.11 21.8296 147.88 21.2222 147.421 20.7333C146.962 20.2444 146.376 20 145.665 20C144.939 20 144.332 20.2444 143.843 20.7333C143.354 21.2222 143.11 21.8296 143.11 22.5556V29.1111H140.443V17.8889H143.11ZM157.434 29.3333C156.412 29.3333 155.493 29.0741 154.678 28.5556C153.878 28.037 153.249 27.3333 152.79 26.4444C152.33 25.5407 152.101 24.5407 152.101 23.4444C152.101 22.3481 152.33 21.363 152.79 20.4889C153.264 19.6 153.908 18.9111 154.723 18.4222C155.538 17.9185 156.441 17.6667 157.434 17.6667C158.204 17.6667 158.893 17.8 159.501 18.0667C160.108 18.3333 160.604 18.7185 160.99 19.2222V17.8889H163.545V29.1111H160.99V27.7778C160.604 28.2667 160.093 28.6444 159.456 28.9111C158.834 29.1926 158.16 29.3333 157.434 29.3333ZM157.99 26.7778C158.893 26.7778 159.634 26.4741 160.212 25.8667C160.804 25.2444 161.101 24.437 161.101 23.4444C161.101 22.4519 160.804 21.6519 160.212 21.0444C159.634 20.4222 158.893 20.1111 157.99 20.1111C157.041 20.1111 156.264 20.4222 155.656 21.0444C155.064 21.6519 154.767 22.4519 154.767 23.4444C154.767 24.437 155.064 25.2444 155.656 25.8667C156.264 26.4741 157.041 26.7778 157.99 26.7778ZM170.762 29.3333C168.51 29.3333 166.769 28.5556 165.539 27L167.317 25.1111C167.643 25.6593 168.102 26.0741 168.695 26.3556C169.288 26.637 169.977 26.7778 170.762 26.7778C171.725 26.7778 172.517 26.4963 173.139 25.9333C173.777 25.3556 174.095 24.6 174.095 23.6667C174.095 22.7481 173.784 22 173.162 21.4222C172.539 20.8444 171.777 20.5556 170.873 20.5556C169.732 20.5556 168.732 20.9259 167.873 21.6667L166.539 20.3333L167.206 12.6667H176.095V15.1111H169.428L169.095 19C169.377 18.8222 169.732 18.6889 170.162 18.6C170.591 18.4963 171.051 18.4444 171.539 18.4444C172.651 18.4444 173.606 18.6889 174.406 19.1778C175.221 19.6519 175.836 20.2963 176.251 21.1111C176.665 21.9111 176.873 22.8 176.873 23.7778C176.873 24.8444 176.606 25.8 176.073 26.6444C175.554 27.4889 174.828 28.1481 173.895 28.6222C172.977 29.0963 171.932 29.3333 170.762 29.3333ZM179.089 15.1111L178.867 12.6667H189.089C189.371 12.6667 189.586 12.7481 189.734 12.9111C189.897 13.0593 189.978 13.2741 189.978 13.5556V14.3333L184.201 29.1111H181.312L186.978 15.1111H179.089ZM194.084 15.1111L193.862 12.6667H199.084C199.365 12.6667 199.58 12.7481 199.728 12.9111C199.891 13.0593 199.973 13.2741 199.973 13.5556V29.1111H197.195V15.1111H194.084ZM210.634 29.3333C209.537 29.3333 208.56 29.1259 207.7 28.7111C206.841 28.3111 206.182 27.7481 205.723 27.0222C205.263 26.2963 205.048 25.4741 205.078 24.5556C205.019 23.5778 205.234 22.7185 205.723 21.9778C206.211 21.2222 206.886 20.6741 207.745 20.3333C207.108 19.9926 206.597 19.5111 206.211 18.8889C205.841 18.2519 205.686 17.5852 205.745 16.8889C205.715 16.0444 205.908 15.2889 206.323 14.6222C206.737 13.9407 207.323 13.4074 208.078 13.0222C208.834 12.637 209.686 12.4444 210.634 12.4444C211.582 12.4444 212.426 12.637 213.167 13.0222C213.908 13.4074 214.486 13.9407 214.9 14.6222C215.315 15.2889 215.523 16.0444 215.523 16.8889C215.523 17.6296 215.352 18.3111 215.011 18.9333C214.671 19.5407 214.174 20.0074 213.523 20.3333C214.352 20.6741 215.019 21.2296 215.523 22C216.041 22.7556 216.3 23.6074 216.3 24.5556C216.3 25.4444 216.056 26.2519 215.567 26.9778C215.093 27.7037 214.419 28.2741 213.545 28.6889C212.686 29.1185 211.715 29.3333 210.634 29.3333ZM210.634 19.3333C211.315 19.3333 211.871 19.1259 212.3 18.7111C212.745 18.2963 212.967 17.763 212.967 17.1111C212.967 16.4444 212.745 15.8889 212.3 15.4444C211.856 15 211.3 14.7778 210.634 14.7778C209.967 14.7778 209.411 15 208.967 15.4444C208.523 15.8889 208.3 16.4444 208.3 17.1111C208.3 17.763 208.515 18.2963 208.945 18.7111C209.389 19.1259 209.952 19.3333 210.634 19.3333ZM210.634 26.7778C211.508 26.7778 212.204 26.5333 212.723 26.0444C213.256 25.5407 213.523 24.8963 213.523 24.1111C213.523 23.3259 213.256 22.6889 212.723 22.2C212.204 21.6963 211.508 21.4444 210.634 21.4444C209.804 21.4444 209.115 21.6963 208.567 22.2C208.019 22.7037 207.745 23.3407 207.745 24.1111C207.745 24.8815 208.019 25.5185 208.567 26.0222C209.115 26.5259 209.804 26.7778 210.634 26.7778ZM220.295 30.3333C219.791 30.3333 219.369 30.163 219.028 29.8222C218.687 29.4815 218.517 29.0593 218.517 28.5556C218.517 28.0519 218.687 27.6296 219.028 27.2889C219.369 26.9481 219.791 26.7778 220.295 26.7778C220.798 26.7778 221.221 26.9481 221.561 27.2889C221.902 27.6296 222.072 28.0519 222.072 28.5556C222.072 29.0593 221.902 29.4815 221.561 29.8222C221.221 30.163 220.798 30.3333 220.295 30.3333ZM228.951 29.3333C227.929 29.3333 227.003 29.0741 226.174 28.5556C225.344 28.037 224.692 27.3333 224.218 26.4444C223.744 25.5407 223.507 24.5407 223.507 23.4444C223.507 22.3481 223.744 21.363 224.218 20.4889C224.692 19.6 225.344 18.9111 226.174 18.4222C227.003 17.9185 227.929 17.6667 228.951 17.6667C229.618 17.6667 230.263 17.8 230.885 18.0667C231.507 18.3185 232.011 18.6667 232.396 19.1111V12.2222H234.951V29.1111H232.396V27.7778C231.981 28.2519 231.477 28.6296 230.885 28.9111C230.292 29.1926 229.648 29.3333 228.951 29.3333ZM229.396 26.7778C230.3 26.7778 231.04 26.4741 231.618 25.8667C232.211 25.2444 232.507 24.437 232.507 23.4444C232.507 22.4519 232.211 21.6519 231.618 21.0444C231.04 20.4222 230.3 20.1111 229.396 20.1111C228.448 20.1111 227.67 20.4222 227.063 21.0444C226.47 21.6519 226.174 22.4519 226.174 23.4444C226.174 24.437 226.47 25.2444 227.063 25.8667C227.67 26.4741 228.448 26.7778 229.396 26.7778ZM242.612 29.3333C241.457 29.3333 240.42 29.0741 239.501 28.5556C238.583 28.0519 237.872 27.3556 237.368 26.4667C236.864 25.563 236.612 24.5556 236.612 23.4444C236.612 22.3481 236.857 21.363 237.346 20.4889C237.849 19.6 238.538 18.9111 239.412 18.4222C240.301 17.9185 241.294 17.6667 242.39 17.6667C243.412 17.6667 244.338 17.9037 245.168 18.3778C245.998 18.8519 246.649 19.5037 247.124 20.3333C247.598 21.163 247.835 22.0889 247.835 23.1111C247.835 23.1852 247.827 23.2741 247.812 23.3778C247.812 23.4667 247.82 23.563 247.835 23.6667C247.761 23.8296 247.724 24.0519 247.724 24.3333H239.168C239.331 25.163 239.724 25.8148 240.346 26.2889C240.968 26.763 241.724 27 242.612 27C243.827 27 244.79 26.5926 245.501 25.7778L247.168 27.3333C246.605 27.9556 245.924 28.4444 245.124 28.8C244.324 29.1556 243.486 29.3333 242.612 29.3333ZM242.39 19.8889C241.546 19.8889 240.835 20.1037 240.257 20.5333C239.694 20.963 239.331 21.563 239.168 22.3333H245.279C244.953 20.7037 243.99 19.8889 242.39 19.8889ZM250.938 17.8889L253.938 25.4444L257.049 17.8889H259.827L254.938 29.1111H253.049L247.938 17.8889H250.938Z" fill="white"/>
<path d="M32 13.4571V27.3661C32 28.2701 31.268 29.0021 30.364 29.0021H26.545V19.7301L20 24.6401L13.455 19.7301V29.0031H9.636C9.42107 29.0031 9.20825 28.9607 9.0097 28.8785C8.81115 28.7962 8.63075 28.6756 8.47882 28.5236C8.32689 28.3715 8.2064 28.1911 8.12425 27.9925C8.04209 27.7939 7.99987 27.581 8 27.3661V13.4571C8 11.4341 10.309 10.2791 11.927 11.4931L13.455 12.6401L20 17.5481L26.545 12.6381L28.073 11.4931C29.69 10.2801 32 11.4341 32 13.4571Z" fill="white"/>
<line x1="38.5" y1="8" x2="38.5" y2="32" stroke="#616E80" stroke-opacity="0.5"/>
</svg>
