<svg width="232" height="40" viewBox="0 0 232 40" fill="none" xmlns="http://www.w3.org/2000/svg">
<rect x="0.5" y="0.5" width="231" height="39" rx="5.5" stroke="#616E80"/>
<path d="M48.4444 27.1111C47.8667 27.1111 47.3185 26.9556 46.8 26.6444C46.2815 26.3333 45.8667 25.9185 45.5556 25.4C45.2593 24.8667 45.1111 24.2889 45.1111 23.6667C45.1111 23.0148 45.2593 22.4222 45.5556 21.8889C45.8667 21.3407 46.2741 20.9111 46.7778 20.6C47.2963 20.2741 47.8519 20.1111 48.4444 20.1111C49.2593 20.1111 49.8889 20.3333 50.3333 20.7778V20.3333H52.1111V25.2222H54.2222C54.3704 24.6296 54.4444 24 54.4444 23.3333C54.4444 21.5704 53.9704 20.2074 53.0222 19.2444C52.0889 18.2667 50.7852 17.7778 49.1111 17.7778C47.9704 17.7778 46.963 18.0222 46.0889 18.5111C45.2148 19 44.5333 19.6889 44.0444 20.5778C43.5704 21.4667 43.3333 22.4963 43.3333 23.6667C43.3333 24.837 43.563 25.8519 44.0222 26.7111C44.4815 27.5556 45.1259 28.2 45.9556 28.6444C46.8 29.1037 47.7778 29.3333 48.8889 29.3333C49.6889 29.3333 50.3926 29.237 51 29.0444C51.6222 28.8519 52.1778 28.5407 52.6667 28.1111L54 29.4444C52.5185 30.7037 50.8148 31.3333 48.8889 31.3333C47.4667 31.3333 46.1556 30.9926 44.9556 30.3111C43.7704 29.6444 42.8296 28.7259 42.1333 27.5556C41.4519 26.3852 41.1111 25.0889 41.1111 23.6667C41.1111 22.2 41.4593 20.8667 42.1556 19.6667C42.8519 18.4667 43.8 17.5185 45 16.8222C46.2 16.1259 47.5333 15.7778 49 15.7778C50.4222 15.7778 51.7111 16.1111 52.8667 16.7778C54.0222 17.4296 54.9259 18.3407 55.5778 19.5111C56.2296 20.6667 56.5556 21.9778 56.5556 23.4444C56.5556 24.7926 56.2593 25.9407 55.6667 26.8889H50.3333V26.4444C49.8889 26.8889 49.2593 27.1111 48.4444 27.1111ZM48.5556 25.3333C49.0444 25.3333 49.4222 25.1704 49.6889 24.8444C49.9704 24.5037 50.1111 24.0741 50.1111 23.5556C50.1111 23.0519 49.9704 22.6519 49.6889 22.3556C49.4222 22.0444 49.0444 21.8889 48.5556 21.8889C48.1111 21.8889 47.7407 22.0444 47.4444 22.3556C47.1481 22.6667 47 23.0667 47 23.5556C47 24.0741 47.1333 24.5037 47.4 24.8444C47.6815 25.1704 48.0667 25.3333 48.5556 25.3333ZM65.2253 12.6667C66.7956 12.6667 68.2253 13.0296 69.5141 13.7556C70.803 14.4667 71.8179 15.4519 72.5586 16.7111C73.2993 17.9704 73.6697 19.363 73.6697 20.8889C73.6697 22.4296 73.3067 23.8296 72.5808 25.0889C71.8549 26.3333 70.8549 27.3111 69.5808 28.0222C68.3216 28.7481 66.9067 29.1111 65.3364 29.1111H59.8919C59.6104 29.1111 59.3882 29.0296 59.2253 28.8667C59.0771 28.7185 59.003 28.5037 59.003 28.2222V12.6667H65.2253ZM61.7808 26.5556H65.2253C66.3216 26.5556 67.2919 26.3259 68.1364 25.8667C68.9808 25.3926 69.6327 24.7333 70.0919 23.8889C70.5512 23.0296 70.7808 22.0296 70.7808 20.8889C70.7808 19.7926 70.5512 18.8148 70.0919 17.9556C69.6327 17.0963 68.9808 16.4296 68.1364 15.9556C67.2919 15.4667 66.3216 15.2222 65.2253 15.2222H61.7808V26.5556ZM80.6632 29.3333C79.5076 29.3333 78.4706 29.0741 77.5521 28.5556C76.6336 28.0519 75.9225 27.3556 75.4188 26.4667C74.915 25.563 74.6632 24.5556 74.6632 23.4444C74.6632 22.3481 74.9076 21.363 75.3965 20.4889C75.9002 19.6 76.5891 18.9111 77.4632 18.4222C78.3521 17.9185 79.3447 17.6667 80.441 17.6667C81.4632 17.6667 82.3891 17.9037 83.2188 18.3778C84.0484 18.8519 84.7002 19.5037 85.1743 20.3333C85.6484 21.163 85.8854 22.0889 85.8854 23.1111C85.8854 23.1852 85.878 23.2741 85.8632 23.3778C85.8632 23.4667 85.8706 23.563 85.8854 23.6667C85.8113 23.8296 85.7743 24.0519 85.7743 24.3333H77.2188C77.3817 25.163 77.7743 25.8148 78.3965 26.2889C79.0188 26.763 79.7743 27 80.6632 27C81.878 27 82.841 26.5926 83.5521 25.7778L85.2188 27.3333C84.6558 27.9556 83.9743 28.4444 83.1743 28.8C82.3743 29.1556 81.5373 29.3333 80.6632 29.3333ZM80.441 19.8889C79.5965 19.8889 78.8854 20.1037 78.3076 20.5333C77.7447 20.963 77.3817 21.563 77.2188 22.3333H83.3299C83.0039 20.7037 82.041 19.8889 80.441 19.8889ZM88.9887 17.8889L91.9887 25.4444L95.0998 17.8889H97.8776L92.9887 29.1111H91.0998L85.9887 17.8889H88.9887ZM101.996 12.6667V19.4444H109.551V12.6667H112.44V29.1111H109.551V21.7778H101.996V29.1111H99.2179V12.6667H101.996ZM119.547 29.3333C118.525 29.3333 117.607 29.0741 116.792 28.5556C115.992 28.037 115.362 27.3333 114.903 26.4444C114.444 25.5407 114.214 24.5407 114.214 23.4444C114.214 22.3481 114.444 21.363 114.903 20.4889C115.377 19.6 116.021 18.9111 116.836 18.4222C117.651 17.9185 118.555 17.6667 119.547 17.6667C120.318 17.6667 121.007 17.8 121.614 18.0667C122.221 18.3333 122.718 18.7185 123.103 19.2222V17.8889H125.658V29.1111H123.103V27.7778C122.718 28.2667 122.207 28.6444 121.57 28.9111C120.947 29.1926 120.273 29.3333 119.547 29.3333ZM120.103 26.7778C121.007 26.7778 121.747 26.4741 122.325 25.8667C122.918 25.2444 123.214 24.437 123.214 23.4444C123.214 22.4519 122.918 21.6519 122.325 21.0444C121.747 20.4222 121.007 20.1111 120.103 20.1111C119.155 20.1111 118.377 20.4222 117.77 21.0444C117.177 21.6519 116.881 22.4519 116.881 23.4444C116.881 24.437 117.177 25.2444 117.77 25.8667C118.377 26.4741 119.155 26.7778 120.103 26.7778ZM130.653 17.8889V19C130.979 18.5704 131.401 18.2444 131.919 18.0222C132.453 17.7852 133.031 17.6667 133.653 17.6667C134.794 17.6667 135.682 18.037 136.319 18.7778L134.653 20.6667C134.416 20.4296 134.171 20.2593 133.919 20.1556C133.668 20.0519 133.356 20 132.986 20C132.305 20 131.742 20.2444 131.297 20.7333C130.868 21.2222 130.653 21.9037 130.653 22.7778V29.1111H127.986V17.8889H130.653ZM141.989 29.3333C141.041 29.3333 140.196 29.1185 139.455 28.6889C138.715 28.2593 138.137 27.6667 137.722 26.9111C137.307 26.1407 137.1 25.2815 137.1 24.3333V17.8889H139.766V24.3333C139.766 25.1185 139.959 25.7259 140.344 26.1556C140.729 26.5704 141.278 26.7778 141.989 26.7778C142.715 26.7778 143.285 26.563 143.7 26.1333C144.115 25.7037 144.322 25.1037 144.322 24.3333V17.8889H146.989V24.3333C146.989 25.2963 146.781 26.1556 146.366 26.9111C145.952 27.6667 145.359 28.2593 144.589 28.6889C143.833 29.1185 142.966 29.3333 141.989 29.3333ZM151.551 17.8889V19.1111C151.951 18.6519 152.448 18.2963 153.04 18.0444C153.633 17.7926 154.285 17.6667 154.996 17.6667C155.781 17.6667 156.492 17.8741 157.129 18.2889C157.781 18.6889 158.292 19.2222 158.662 19.8889C159.033 20.5556 159.218 21.2593 159.218 22V29.1111H156.551V22.5556C156.551 21.8296 156.322 21.2222 155.862 20.7333C155.403 20.2444 154.818 20 154.107 20C153.381 20 152.773 20.2444 152.285 20.7333C151.796 21.2222 151.551 21.8296 151.551 22.5556V29.1111H148.885V17.8889H151.551ZM165.875 29.3333C164.853 29.3333 163.935 29.0741 163.12 28.5556C162.32 28.037 161.69 27.3333 161.231 26.4444C160.772 25.5407 160.542 24.5407 160.542 23.4444C160.542 22.3481 160.772 21.363 161.231 20.4889C161.705 19.6 162.35 18.9111 163.164 18.4222C163.979 17.9185 164.883 17.6667 165.875 17.6667C166.646 17.6667 167.335 17.8 167.942 18.0667C168.55 18.3333 169.046 18.7185 169.431 19.2222V17.8889H171.987V29.1111H169.431V27.7778C169.046 28.2667 168.535 28.6444 167.898 28.9111C167.275 29.1926 166.601 29.3333 165.875 29.3333ZM166.431 26.7778C167.335 26.7778 168.075 26.4741 168.653 25.8667C169.246 25.2444 169.542 24.437 169.542 23.4444C169.542 22.4519 169.246 21.6519 168.653 21.0444C168.075 20.4222 167.335 20.1111 166.431 20.1111C165.483 20.1111 164.705 20.4222 164.098 21.0444C163.505 21.6519 163.209 22.4519 163.209 23.4444C163.209 24.437 163.505 25.2444 164.098 25.8667C164.705 26.4741 165.483 26.7778 166.431 26.7778ZM179.203 29.3333C176.951 29.3333 175.211 28.5556 173.981 27L175.759 25.1111C176.085 25.6593 176.544 26.0741 177.136 26.3556C177.729 26.637 178.418 26.7778 179.203 26.7778C180.166 26.7778 180.959 26.4963 181.581 25.9333C182.218 25.3556 182.536 24.6 182.536 23.6667C182.536 22.7481 182.225 22 181.603 21.4222C180.981 20.8444 180.218 20.5556 179.314 20.5556C178.173 20.5556 177.173 20.9259 176.314 21.6667L174.981 20.3333L175.648 12.6667H184.536V15.1111H177.87L177.536 19C177.818 18.8222 178.173 18.6889 178.603 18.6C179.033 18.4963 179.492 18.4444 179.981 18.4444C181.092 18.4444 182.048 18.6889 182.848 19.1778C183.662 19.6519 184.277 20.2963 184.692 21.1111C185.107 21.9111 185.314 22.8 185.314 23.7778C185.314 24.8444 185.048 25.8 184.514 26.6444C183.996 27.4889 183.27 28.1481 182.336 28.6222C181.418 29.0963 180.373 29.3333 179.203 29.3333ZM187.531 15.1111L187.309 12.6667H197.531C197.812 12.6667 198.027 12.7481 198.175 12.9111C198.338 13.0593 198.42 13.2741 198.42 13.5556V14.3333L192.642 29.1111H189.753L195.42 15.1111H187.531ZM202.525 15.1111L202.303 12.6667H207.525C207.807 12.6667 208.021 12.7481 208.17 12.9111C208.333 13.0593 208.414 13.2741 208.414 13.5556V29.1111H205.636V15.1111H202.525ZM219.075 29.3333C217.979 29.3333 217.001 29.1259 216.142 28.7111C215.282 28.3111 214.623 27.7481 214.164 27.0222C213.705 26.2963 213.49 25.4741 213.52 24.5556C213.46 23.5778 213.675 22.7185 214.164 21.9778C214.653 21.2222 215.327 20.6741 216.186 20.3333C215.549 19.9926 215.038 19.5111 214.653 18.8889C214.282 18.2519 214.127 17.5852 214.186 16.8889C214.157 16.0444 214.349 15.2889 214.764 14.6222C215.179 13.9407 215.764 13.4074 216.52 13.0222C217.275 12.637 218.127 12.4444 219.075 12.4444C220.023 12.4444 220.868 12.637 221.608 13.0222C222.349 13.4074 222.927 13.9407 223.342 14.6222C223.757 15.2889 223.964 16.0444 223.964 16.8889C223.964 17.6296 223.794 18.3111 223.453 18.9333C223.112 19.5407 222.616 20.0074 221.964 20.3333C222.794 20.6741 223.46 21.2296 223.964 22C224.482 22.7556 224.742 23.6074 224.742 24.5556C224.742 25.4444 224.497 26.2519 224.008 26.9778C223.534 27.7037 222.86 28.2741 221.986 28.6889C221.127 29.1185 220.157 29.3333 219.075 29.3333ZM219.075 19.3333C219.757 19.3333 220.312 19.1259 220.742 18.7111C221.186 18.2963 221.408 17.763 221.408 17.1111C221.408 16.4444 221.186 15.8889 220.742 15.4444C220.297 15 219.742 14.7778 219.075 14.7778C218.408 14.7778 217.853 15 217.408 15.4444C216.964 15.8889 216.742 16.4444 216.742 17.1111C216.742 17.763 216.957 18.2963 217.386 18.7111C217.831 19.1259 218.394 19.3333 219.075 19.3333ZM219.075 26.7778C219.949 26.7778 220.645 26.5333 221.164 26.0444C221.697 25.5407 221.964 24.8963 221.964 24.1111C221.964 23.3259 221.697 22.6889 221.164 22.2C220.645 21.6963 219.949 21.4444 219.075 21.4444C218.245 21.4444 217.557 21.6963 217.008 22.2C216.46 22.7037 216.186 23.3407 216.186 24.1111C216.186 24.8815 216.46 25.5185 217.008 26.0222C217.557 26.5259 218.245 26.7778 219.075 26.7778Z" fill="white"/>
<path d="M21.6068 12.653H14.9408L12.6448 27.251H7.81982L10.8618 8H18.8568C22.6108 8 25.2318 10.294 25.3298 13.513C24.6818 13.035 23.2238 12.653 21.6068 12.653ZM28.1778 18.199C28.1778 21.609 25.1678 25.052 21.2198 25.052H18.7268L17.5948 32H12.7398L14.5848 20.462H18.1768C22.3848 20.462 25.5228 16.828 25.3298 13.513C26.191 13.9548 26.913 14.6266 27.4157 15.4537C27.9184 16.2809 28.1822 17.2311 28.1778 18.199ZM15.6528 13.546H22.0608C22.9678 13.546 24.0028 13.768 24.4238 14.087C24.2288 16.828 21.7688 19.57 17.9828 19.57H14.7138L15.6528 13.546Z" fill="white"/>
<line x1="34.5" y1="8" x2="34.5" y2="32" stroke="#616E80" stroke-opacity="0.5"/>
</svg>
