<svg width="238" height="40" viewBox="0 0 238 40" fill="none" xmlns="http://www.w3.org/2000/svg">
<rect x="0.5" y="0.5" width="237" height="39" rx="5.5" stroke="#616E80"/>
<g clip-path="url(#clip0_417_36)">
<path d="M22.2338 18.162L30.9768 8H28.9048L21.3138 16.824L15.2508 8H8.25781L17.4258 21.343L8.25781 32H10.3298L18.3458 22.682L24.7488 32H31.7418L22.2338 18.162ZM19.3968 21.461L18.4678 20.132L11.0758 9.56H14.2578L20.2228 18.092L21.1518 19.421L28.9058 30.511H25.7238L19.3968 21.461Z" fill="white"/>
</g>
<path d="M52.4444 27.1111C51.8667 27.1111 51.3185 26.9556 50.8 26.6444C50.2815 26.3333 49.8667 25.9185 49.5556 25.4C49.2593 24.8667 49.1111 24.2889 49.1111 23.6667C49.1111 23.0148 49.2593 22.4222 49.5556 21.8889C49.8667 21.3407 50.2741 20.9111 50.7778 20.6C51.2963 20.2741 51.8519 20.1111 52.4444 20.1111C53.2593 20.1111 53.8889 20.3333 54.3333 20.7778V20.3333H56.1111V25.2222H58.2222C58.3704 24.6296 58.4444 24 58.4444 23.3333C58.4444 21.5704 57.9704 20.2074 57.0222 19.2444C56.0889 18.2667 54.7852 17.7778 53.1111 17.7778C51.9704 17.7778 50.963 18.0222 50.0889 18.5111C49.2148 19 48.5333 19.6889 48.0444 20.5778C47.5704 21.4667 47.3333 22.4963 47.3333 23.6667C47.3333 24.837 47.563 25.8519 48.0222 26.7111C48.4815 27.5556 49.1259 28.2 49.9556 28.6444C50.8 29.1037 51.7778 29.3333 52.8889 29.3333C53.6889 29.3333 54.3926 29.237 55 29.0444C55.6222 28.8519 56.1778 28.5407 56.6667 28.1111L58 29.4444C56.5185 30.7037 54.8148 31.3333 52.8889 31.3333C51.4667 31.3333 50.1556 30.9926 48.9556 30.3111C47.7704 29.6444 46.8296 28.7259 46.1333 27.5556C45.4519 26.3852 45.1111 25.0889 45.1111 23.6667C45.1111 22.2 45.4593 20.8667 46.1556 19.6667C46.8519 18.4667 47.8 17.5185 49 16.8222C50.2 16.1259 51.5333 15.7778 53 15.7778C54.4222 15.7778 55.7111 16.1111 56.8667 16.7778C58.0222 17.4296 58.9259 18.3407 59.5778 19.5111C60.2296 20.6667 60.5556 21.9778 60.5556 23.4444C60.5556 24.7926 60.2593 25.9407 59.6667 26.8889H54.3333V26.4444C53.8889 26.8889 53.2593 27.1111 52.4444 27.1111ZM52.5556 25.3333C53.0444 25.3333 53.4222 25.1704 53.6889 24.8444C53.9704 24.5037 54.1111 24.0741 54.1111 23.5556C54.1111 23.0519 53.9704 22.6519 53.6889 22.3556C53.4222 22.0444 53.0444 21.8889 52.5556 21.8889C52.1111 21.8889 51.7407 22.0444 51.4444 22.3556C51.1481 22.6667 51 23.0667 51 23.5556C51 24.0741 51.1333 24.5037 51.4 24.8444C51.6815 25.1704 52.0667 25.3333 52.5556 25.3333ZM69.2253 12.6667C70.7956 12.6667 72.2253 13.0296 73.5141 13.7556C74.803 14.4667 75.8179 15.4519 76.5586 16.7111C77.2993 17.9704 77.6697 19.363 77.6697 20.8889C77.6697 22.4296 77.3067 23.8296 76.5808 25.0889C75.8549 26.3333 74.8549 27.3111 73.5808 28.0222C72.3216 28.7481 70.9067 29.1111 69.3364 29.1111H63.8919C63.6104 29.1111 63.3882 29.0296 63.2253 28.8667C63.0771 28.7185 63.003 28.5037 63.003 28.2222V12.6667H69.2253ZM65.7808 26.5556H69.2253C70.3216 26.5556 71.2919 26.3259 72.1364 25.8667C72.9808 25.3926 73.6327 24.7333 74.0919 23.8889C74.5512 23.0296 74.7808 22.0296 74.7808 20.8889C74.7808 19.7926 74.5512 18.8148 74.0919 17.9556C73.6327 17.0963 72.9808 16.4296 72.1364 15.9556C71.2919 15.4667 70.3216 15.2222 69.2253 15.2222H65.7808V26.5556ZM84.6632 29.3333C83.5076 29.3333 82.4706 29.0741 81.5521 28.5556C80.6336 28.0519 79.9225 27.3556 79.4188 26.4667C78.915 25.563 78.6632 24.5556 78.6632 23.4444C78.6632 22.3481 78.9076 21.363 79.3965 20.4889C79.9002 19.6 80.5891 18.9111 81.4632 18.4222C82.3521 17.9185 83.3447 17.6667 84.441 17.6667C85.4632 17.6667 86.3891 17.9037 87.2188 18.3778C88.0484 18.8519 88.7002 19.5037 89.1743 20.3333C89.6484 21.163 89.8854 22.0889 89.8854 23.1111C89.8854 23.1852 89.878 23.2741 89.8632 23.3778C89.8632 23.4667 89.8706 23.563 89.8854 23.6667C89.8113 23.8296 89.7743 24.0519 89.7743 24.3333H81.2188C81.3817 25.163 81.7743 25.8148 82.3965 26.2889C83.0188 26.763 83.7743 27 84.6632 27C85.878 27 86.841 26.5926 87.5521 25.7778L89.2188 27.3333C88.6558 27.9556 87.9743 28.4444 87.1743 28.8C86.3743 29.1556 85.5373 29.3333 84.6632 29.3333ZM84.441 19.8889C83.5965 19.8889 82.8854 20.1037 82.3076 20.5333C81.7447 20.963 81.3817 21.563 81.2188 22.3333H87.3299C87.0039 20.7037 86.041 19.8889 84.441 19.8889ZM92.9887 17.8889L95.9887 25.4444L99.0998 17.8889H101.878L96.9887 29.1111H95.0998L89.9887 17.8889H92.9887ZM105.996 12.6667V19.4444H113.551V12.6667H116.44V29.1111H113.551V21.7778H105.996V29.1111H103.218V12.6667H105.996ZM123.547 29.3333C122.525 29.3333 121.607 29.0741 120.792 28.5556C119.992 28.037 119.362 27.3333 118.903 26.4444C118.444 25.5407 118.214 24.5407 118.214 23.4444C118.214 22.3481 118.444 21.363 118.903 20.4889C119.377 19.6 120.021 18.9111 120.836 18.4222C121.651 17.9185 122.555 17.6667 123.547 17.6667C124.318 17.6667 125.007 17.8 125.614 18.0667C126.221 18.3333 126.718 18.7185 127.103 19.2222V17.8889H129.658V29.1111H127.103V27.7778C126.718 28.2667 126.207 28.6444 125.57 28.9111C124.947 29.1926 124.273 29.3333 123.547 29.3333ZM124.103 26.7778C125.007 26.7778 125.747 26.4741 126.325 25.8667C126.918 25.2444 127.214 24.437 127.214 23.4444C127.214 22.4519 126.918 21.6519 126.325 21.0444C125.747 20.4222 125.007 20.1111 124.103 20.1111C123.155 20.1111 122.377 20.4222 121.77 21.0444C121.177 21.6519 120.881 22.4519 120.881 23.4444C120.881 24.437 121.177 25.2444 121.77 25.8667C122.377 26.4741 123.155 26.7778 124.103 26.7778ZM134.653 17.8889V19C134.979 18.5704 135.401 18.2444 135.919 18.0222C136.453 17.7852 137.031 17.6667 137.653 17.6667C138.794 17.6667 139.682 18.037 140.319 18.7778L138.653 20.6667C138.416 20.4296 138.171 20.2593 137.919 20.1556C137.668 20.0519 137.356 20 136.986 20C136.305 20 135.742 20.2444 135.297 20.7333C134.868 21.2222 134.653 21.9037 134.653 22.7778V29.1111H131.986V17.8889H134.653ZM145.989 29.3333C145.041 29.3333 144.196 29.1185 143.455 28.6889C142.715 28.2593 142.137 27.6667 141.722 26.9111C141.307 26.1407 141.1 25.2815 141.1 24.3333V17.8889H143.766V24.3333C143.766 25.1185 143.959 25.7259 144.344 26.1556C144.729 26.5704 145.278 26.7778 145.989 26.7778C146.715 26.7778 147.285 26.563 147.7 26.1333C148.115 25.7037 148.322 25.1037 148.322 24.3333V17.8889H150.989V24.3333C150.989 25.2963 150.781 26.1556 150.366 26.9111C149.952 27.6667 149.359 28.2593 148.589 28.6889C147.833 29.1185 146.966 29.3333 145.989 29.3333ZM155.551 17.8889V19.1111C155.951 18.6519 156.448 18.2963 157.04 18.0444C157.633 17.7926 158.285 17.6667 158.996 17.6667C159.781 17.6667 160.492 17.8741 161.129 18.2889C161.781 18.6889 162.292 19.2222 162.662 19.8889C163.033 20.5556 163.218 21.2593 163.218 22V29.1111H160.551V22.5556C160.551 21.8296 160.322 21.2222 159.862 20.7333C159.403 20.2444 158.818 20 158.107 20C157.381 20 156.773 20.2444 156.285 20.7333C155.796 21.2222 155.551 21.8296 155.551 22.5556V29.1111H152.885V17.8889H155.551ZM169.875 29.3333C168.853 29.3333 167.935 29.0741 167.12 28.5556C166.32 28.037 165.69 27.3333 165.231 26.4444C164.772 25.5407 164.542 24.5407 164.542 23.4444C164.542 22.3481 164.772 21.363 165.231 20.4889C165.705 19.6 166.35 18.9111 167.164 18.4222C167.979 17.9185 168.883 17.6667 169.875 17.6667C170.646 17.6667 171.335 17.8 171.942 18.0667C172.55 18.3333 173.046 18.7185 173.431 19.2222V17.8889H175.987V29.1111H173.431V27.7778C173.046 28.2667 172.535 28.6444 171.898 28.9111C171.275 29.1926 170.601 29.3333 169.875 29.3333ZM170.431 26.7778C171.335 26.7778 172.075 26.4741 172.653 25.8667C173.246 25.2444 173.542 24.437 173.542 23.4444C173.542 22.4519 173.246 21.6519 172.653 21.0444C172.075 20.4222 171.335 20.1111 170.431 20.1111C169.483 20.1111 168.705 20.4222 168.098 21.0444C167.505 21.6519 167.209 22.4519 167.209 23.4444C167.209 24.437 167.505 25.2444 168.098 25.8667C168.705 26.4741 169.483 26.7778 170.431 26.7778ZM183.203 29.3333C180.951 29.3333 179.211 28.5556 177.981 27L179.759 25.1111C180.085 25.6593 180.544 26.0741 181.136 26.3556C181.729 26.637 182.418 26.7778 183.203 26.7778C184.166 26.7778 184.959 26.4963 185.581 25.9333C186.218 25.3556 186.536 24.6 186.536 23.6667C186.536 22.7481 186.225 22 185.603 21.4222C184.981 20.8444 184.218 20.5556 183.314 20.5556C182.173 20.5556 181.173 20.9259 180.314 21.6667L178.981 20.3333L179.648 12.6667H188.536V15.1111H181.87L181.536 19C181.818 18.8222 182.173 18.6889 182.603 18.6C183.033 18.4963 183.492 18.4444 183.981 18.4444C185.092 18.4444 186.048 18.6889 186.848 19.1778C187.662 19.6519 188.277 20.2963 188.692 21.1111C189.107 21.9111 189.314 22.8 189.314 23.7778C189.314 24.8444 189.048 25.8 188.514 26.6444C187.996 27.4889 187.27 28.1481 186.336 28.6222C185.418 29.0963 184.373 29.3333 183.203 29.3333ZM191.531 15.1111L191.309 12.6667H201.531C201.812 12.6667 202.027 12.7481 202.175 12.9111C202.338 13.0593 202.42 13.2741 202.42 13.5556V14.3333L196.642 29.1111H193.753L199.42 15.1111H191.531ZM206.525 15.1111L206.303 12.6667H211.525C211.807 12.6667 212.021 12.7481 212.17 12.9111C212.333 13.0593 212.414 13.2741 212.414 13.5556V29.1111H209.636V15.1111H206.525ZM223.075 29.3333C221.979 29.3333 221.001 29.1259 220.142 28.7111C219.282 28.3111 218.623 27.7481 218.164 27.0222C217.705 26.2963 217.49 25.4741 217.52 24.5556C217.46 23.5778 217.675 22.7185 218.164 21.9778C218.653 21.2222 219.327 20.6741 220.186 20.3333C219.549 19.9926 219.038 19.5111 218.653 18.8889C218.282 18.2519 218.127 17.5852 218.186 16.8889C218.157 16.0444 218.349 15.2889 218.764 14.6222C219.179 13.9407 219.764 13.4074 220.52 13.0222C221.275 12.637 222.127 12.4444 223.075 12.4444C224.023 12.4444 224.868 12.637 225.608 13.0222C226.349 13.4074 226.927 13.9407 227.342 14.6222C227.757 15.2889 227.964 16.0444 227.964 16.8889C227.964 17.6296 227.794 18.3111 227.453 18.9333C227.112 19.5407 226.616 20.0074 225.964 20.3333C226.794 20.6741 227.46 21.2296 227.964 22C228.482 22.7556 228.742 23.6074 228.742 24.5556C228.742 25.4444 228.497 26.2519 228.008 26.9778C227.534 27.7037 226.86 28.2741 225.986 28.6889C225.127 29.1185 224.157 29.3333 223.075 29.3333ZM223.075 19.3333C223.757 19.3333 224.312 19.1259 224.742 18.7111C225.186 18.2963 225.408 17.763 225.408 17.1111C225.408 16.4444 225.186 15.8889 224.742 15.4444C224.297 15 223.742 14.7778 223.075 14.7778C222.408 14.7778 221.853 15 221.408 15.4444C220.964 15.8889 220.742 16.4444 220.742 17.1111C220.742 17.763 220.957 18.2963 221.386 18.7111C221.831 19.1259 222.394 19.3333 223.075 19.3333ZM223.075 26.7778C223.949 26.7778 224.645 26.5333 225.164 26.0444C225.697 25.5407 225.964 24.8963 225.964 24.1111C225.964 23.3259 225.697 22.6889 225.164 22.2C224.645 21.6963 223.949 21.4444 223.075 21.4444C222.245 21.4444 221.557 21.6963 221.008 22.2C220.46 22.7037 220.186 23.3407 220.186 24.1111C220.186 24.8815 220.46 25.5185 221.008 26.0222C221.557 26.5259 222.245 26.7778 223.075 26.7778Z" fill="white"/>
<line x1="38.5" y1="8" x2="38.5" y2="32" stroke="#616E80" stroke-opacity="0.5"/>
<defs>
<clipPath id="clip0_417_36">
<rect width="24" height="24" fill="white" transform="translate(8 8)"/>
</clipPath>
</defs>
</svg>
